<svg id="Layer_1" data-name="Layer 1" xmlns="http://www.w3.org/2000/svg" viewBox="0 0 15 15"><defs><style>.cls-1{fill:#303030;}.cls-1,.cls-2{fill-rule:evenodd;}.cls-2{fill:#ffbf00;}</style></defs><title>favicon</title><path class="cls-1" d="M5.33,7.31V7.23A2.59,2.59,0,0,1,6.94,4.81a2.56,2.56,0,0,1,.91-.19h.22A2.33,2.33,0,0,1,9.41,5V3.19A4.33,4.33,0,0,0,8.07,3H7.84A4.23,4.23,0,0,0,4.23,5.17,4.55,4.55,0,0,0,3.7,7.28,4.24,4.24,0,0,0,6,11.05,4.56,4.56,0,0,0,8,11.52a4.2,4.2,0,0,0,3.82-2.36,4.08,4.08,0,0,0,.43-2V2.68A6.25,6.25,0,1,1,8,1a6.33,6.33,0,0,1,2.64.58v.76h0V7.52h0A2.65,2.65,0,0,1,8,9.89h0a2.61,2.61,0,0,1-2.44-1.7A2.89,2.89,0,0,1,5.33,7.31Z"/><path class="cls-2" d="M8,8.92A1.67,1.67,0,1,0,6.3,7.26,1.66,1.66,0,0,0,8,8.92Z"/></svg>