<svg id="Layer_1" data-name="Layer 1" xmlns="http://www.w3.org/2000/svg" viewBox="0 0 100 50"><defs><style>.cls-1{fill:#f9f8f7;}.cls-1,.cls-2{fill-rule:evenodd;}.cls-2{fill:#f4b516;}.cls-3{font-size:13.06px;fill:#fff;font-family:Corbel;letter-spacing:0.05em;}.cls-4{letter-spacing:0.01em;}.cls-5{letter-spacing:0.05em;}</style></defs><title>off_p3</title><path class="cls-1" d="M45.15,13.12V13a3.92,3.92,0,0,1,2.44-3.65A4.08,4.08,0,0,1,49,9.07h.34a3.49,3.49,0,0,1,2,.62V6.93a6.16,6.16,0,0,0-2-.31h-.35A6.38,6.38,0,0,0,43.5,9.89a7.06,7.06,0,0,0-.79,3.19,6.37,6.37,0,0,0,3.5,5.67,7,7,0,0,0,2.92.7,6.3,6.3,0,0,0,5.75-3.55,6.19,6.19,0,0,0,.65-3V6.15A9.43,9.43,0,1,1,53.08,4.5V5.64h0v7.79h0a3.91,3.91,0,0,1-2.29,3.21,4,4,0,0,1-1.65.36h-.05a4,4,0,0,1-3.69-2.55A4.63,4.63,0,0,1,45.15,13.12Z"/><path class="cls-2" d="M49.12,15.54a2.51,2.51,0,1,0-2.5-2.5A2.51,2.51,0,0,0,49.12,15.54Z"/><text class="cls-3" transform="translate(0 39.83)">Official <tspan class="cls-4" x="45.9" y="0">P</tspan><tspan class="cls-5" x="53.47" y="0">ortfolio</tspan></text></svg>